# xmcd
#
# Track frame offsets: 
#        150
#        16477
#        30035
#        68797
#        82860
#        108487
#        124250
#        143395
#        156347
#        168655
#        197537
#        209580
#        231682
#        245587
#        266177
#        283090
#        302595
#        320932
#
# Disc length: 4483 seconds
#
# Revision: 0
# Processed by: cddbd v1.5.2PL0 Copyright (c) Steve Scherf et al.
# Submitted via: ExactAudioCopyFreeDBPlugin 1.0
#
DISCID=08118112
DTITLE=Stanley Black and his Orchestra - A Touch  of Latin
DYEAR=2000
DGENRE=Latin
TTITLE0=Granada
TTITLE1=La macarenas
TTITLE2=Carmen fantasy
TTITLE3=Cancion del mar
TTITLE4=Mexican hat dance
TTITLE5=Siboney
TTITLE6=Estrellita
TTITLE7=Tropical
TTITLE8=Cherry pink and apple blossom white
TTITLE9=Malaguena
TTITLE10=Cavaquiho
TTITLE11=Solamente una vez
TTITLE12=La bamba
TTITLE13=Samba de orfeu
TTITLE14=Valencia
TTITLE15=Ay ay ay
TTITLE16=Nostalgia
TTITLE17=The breeze and I
EXTD=
EXTT0=
EXTT1=
EXTT2=
EXTT3=
EXTT4=
EXTT5=
EXTT6=
EXTT7=
EXTT8=
EXTT9=
EXTT10=
EXTT11=
EXTT12=
EXTT13=
EXTT14=
EXTT15=
EXTT16=
EXTT17=
PLAYORDER=
